<svg xmlns="http://www.w3.org/2000/svg" width="720" height="460" viewBox="0 0 720 460"><rect width="100%" height="100%" fill="white"/><style>text{font-family:Arial,Helvetica,sans-serif;fill:#111} .axis{stroke:#222;stroke-width:1.5} .grid{stroke:#ddd;stroke-width:1} .lab{font-size:15px} .small{font-size:13px} .title{font-size:20px;font-weight:700}</style><text x="360.0" y="30" text-anchor="middle" class="title">V4 frozen structured non-periodic null challenge</text><line x1="90" y1="55.0" x2="695" y2="55.0" class="grid"/><line x1="90" y1="122.0" x2="695" y2="122.0" class="grid"/><line x1="90" y1="189.0" x2="695" y2="189.0" class="grid"/><line x1="90" y1="256.0" x2="695" y2="256.0" class="grid"/><line x1="90" y1="323.0" x2="695" y2="323.0" class="grid"/><line x1="90" y1="390.0" x2="695" y2="390.0" class="grid"/><line x1="90" y1="88.6" x2="695" y2="88.6" stroke="#555" stroke-dasharray="6,5"/><polyline points="90.0,194.8 453.0,356.4 695.0,336.7" fill="none" stroke="#1f77b4" stroke-width="2.5"/><circle cx="90.0" cy="194.8" r="2.4" fill="#1f77b4"/><circle cx="453.0" cy="356.4" r="2.4" fill="#1f77b4"/><circle cx="695.0" cy="336.7" r="2.4" fill="#1f77b4"/><line x1="100" y1="73" x2="125" y2="73" stroke="#1f77b4" stroke-width="3"/><text x="132" y="78" class="small">structured null</text><line x1="90" y1="390" x2="695" y2="390" class="axis"/><line x1="90" y1="55" x2="90" y2="390" class="axis"/><line x1="90.0" y1="390" x2="90.0" y2="396" class="axis"/><text x="90.0" y="414" text-anchor="middle" class="small">0</text><line x1="84" y1="55.0" x2="90" y2="55.0" class="axis"/><text x="80" y="60.0" text-anchor="end" class="small">0.1</text><line x1="211.0" y1="390" x2="211.0" y2="396" class="axis"/><text x="211.0" y="414" text-anchor="middle" class="small">0.5</text><line x1="84" y1="122.0" x2="90" y2="122.0" class="axis"/><text x="80" y="127.0" text-anchor="end" class="small">0.03</text><line x1="332.0" y1="390" x2="332.0" y2="396" class="axis"/><text x="332.0" y="414" text-anchor="middle" class="small">1</text><line x1="84" y1="189.0" x2="90" y2="189.0" class="axis"/><text x="80" y="194.0" text-anchor="end" class="small">0.006</text><line x1="453.0" y1="390" x2="453.0" y2="396" class="axis"/><text x="453.0" y="414" text-anchor="middle" class="small">1.5</text><line x1="84" y1="256.0" x2="90" y2="256.0" class="axis"/><text x="80" y="261.0" text-anchor="end" class="small">0.002</text><line x1="574.0" y1="390" x2="574.0" y2="396" class="axis"/><text x="574.0" y="414" text-anchor="middle" class="small">2</text><line x1="84" y1="323.0" x2="90" y2="323.0" class="axis"/><text x="80" y="328.0" text-anchor="end" class="small">0.0004</text><line x1="695.0" y1="390" x2="695.0" y2="396" class="axis"/><text x="695.0" y="414" text-anchor="middle" class="small">2.5</text><line x1="84" y1="390.0" x2="90" y2="390.0" class="axis"/><text x="80" y="395.0" text-anchor="end" class="small">0.0001</text><text x="392.5" y="442" text-anchor="middle" class="lab">selection exponent gamma</text><text x="22" y="222.5" text-anchor="middle" class="lab" transform="rotate(-90 22 222.5)">empirical structured-null p</text><text x="97.0" y="187.8" class="small">0.005599</text><text x="460.0" y="349.4" class="small">0.0002</text><text x="702.0" y="329.7" class="small">0.0003</text></svg>
